<svg xmlns="http://www.w3.org/2000/svg" viewBox="0 0 24 24" width="24" height="24"><path d="M3 6h18M5 6v14a2 2 0 0 0 2 2h10a2 2 0 0 0 2-2V6M8 6V4a2 2 0 0 1 2-2h4a2 2 0 0 1 2 2v2M10 11v6M14 11v6" fill="none" stroke="currentColor" stroke-width="3.5" stroke-linecap="round" stroke-linejoin="round" opacity="0.3"/><path d="M3 6h18M5 6v14a2 2 0 0 0 2 2h10a2 2 0 0 0 2-2V6M8 6V4a2 2 0 0 1 2-2h4a2 2 0 0 1 2 2v2M10 11v6M14 11v6" fill="none" stroke="currentColor" stroke-width="1.5" stroke-linecap="round" stroke-linejoin="round"/></svg>
