<svg width="976" height="469" viewBox="0 0 976 469" fill="none" xmlns="http://www.w3.org/2000/svg">
<g filter="url(#filter0_d_3142_35118)">
<rect x="48" y="44" width="880" height="373" rx="24" fill="white"/>
<line x1="156.5" y1="193.5" x2="819.5" y2="193.5" stroke="#E6EAEE" stroke-linecap="round" stroke-linejoin="round"/>
<path d="M165.312 163.512C164.331 163.512 163.392 163.373 162.496 163.096C161.6 162.819 160.779 162.403 160.032 161.848C159.285 161.293 158.635 160.621 158.08 159.832C157.525 159.021 157.088 158.083 156.768 157.016L160.832 155.416C161.131 156.568 161.653 157.528 162.4 158.296C163.147 159.043 164.128 159.416 165.344 159.416C165.792 159.416 166.219 159.363 166.624 159.256C167.051 159.128 167.424 158.957 167.744 158.744C168.085 158.509 168.352 158.221 168.544 157.88C168.736 157.539 168.832 157.144 168.832 156.696C168.832 156.269 168.757 155.885 168.608 155.544C168.459 155.203 168.203 154.883 167.84 154.584C167.499 154.285 167.04 153.997 166.464 153.72C165.909 153.443 165.216 153.155 164.384 152.856L162.976 152.344C162.357 152.131 161.728 151.843 161.088 151.48C160.469 151.117 159.904 150.68 159.392 150.168C158.88 149.656 158.453 149.059 158.112 148.376C157.792 147.672 157.632 146.883 157.632 146.008C157.632 145.112 157.803 144.28 158.144 143.512C158.507 142.723 159.008 142.04 159.648 141.464C160.309 140.867 161.088 140.408 161.984 140.088C162.901 139.747 163.915 139.576 165.024 139.576C166.176 139.576 167.168 139.736 168 140.056C168.853 140.355 169.568 140.749 170.144 141.24C170.741 141.709 171.221 142.232 171.584 142.808C171.947 143.384 172.213 143.928 172.384 144.44L168.576 146.04C168.363 145.4 167.968 144.824 167.392 144.312C166.837 143.8 166.069 143.544 165.088 143.544C164.149 143.544 163.371 143.768 162.752 144.216C162.133 144.643 161.824 145.208 161.824 145.912C161.824 146.595 162.123 147.181 162.72 147.672C163.317 148.141 164.267 148.6 165.568 149.048L167.008 149.528C167.925 149.848 168.757 150.221 169.504 150.648C170.272 151.053 170.923 151.544 171.456 152.12C172.011 152.696 172.427 153.357 172.704 154.104C173.003 154.829 173.152 155.672 173.152 156.632C173.152 157.827 172.907 158.861 172.416 159.736C171.947 160.589 171.339 161.293 170.592 161.848C169.845 162.403 169.003 162.819 168.064 163.096C167.125 163.373 166.208 163.512 165.312 163.512ZM176.198 140.088H180.39V146.52L180.134 149.368H180.39C180.838 148.621 181.478 148.013 182.31 147.544C183.164 147.053 184.113 146.808 185.158 146.808C187.185 146.808 188.678 147.405 189.638 148.6C190.62 149.795 191.11 151.427 191.11 153.496V163H186.918V154.008C186.918 152.92 186.662 152.099 186.15 151.544C185.638 150.968 184.924 150.68 184.006 150.68C183.43 150.68 182.918 150.808 182.47 151.064C182.022 151.299 181.638 151.629 181.318 152.056C181.02 152.483 180.785 152.984 180.614 153.56C180.465 154.115 180.39 154.712 180.39 155.352V163H176.198V140.088ZM201.997 146.808C203.213 146.808 204.323 147.021 205.325 147.448C206.349 147.853 207.224 148.429 207.949 149.176C208.696 149.901 209.272 150.776 209.677 151.8C210.104 152.824 210.317 153.944 210.317 155.16C210.317 156.376 210.104 157.496 209.677 158.52C209.272 159.544 208.696 160.429 207.949 161.176C207.224 161.901 206.349 162.477 205.325 162.904C204.323 163.309 203.213 163.512 201.997 163.512C200.781 163.512 199.661 163.309 198.637 162.904C197.635 162.477 196.76 161.901 196.013 161.176C195.288 160.429 194.712 159.544 194.285 158.52C193.88 157.496 193.677 156.376 193.677 155.16C193.677 153.944 193.88 152.824 194.285 151.8C194.712 150.776 195.288 149.901 196.013 149.176C196.76 148.429 197.635 147.853 198.637 147.448C199.661 147.021 200.781 146.808 201.997 146.808ZM201.997 159.64C202.531 159.64 203.043 159.544 203.533 159.352C204.045 159.139 204.493 158.84 204.877 158.456C205.261 158.072 205.56 157.603 205.773 157.048C206.008 156.493 206.125 155.864 206.125 155.16C206.125 154.456 206.008 153.827 205.773 153.272C205.56 152.717 205.261 152.248 204.877 151.864C204.493 151.48 204.045 151.192 203.533 151C203.043 150.787 202.531 150.68 201.997 150.68C201.443 150.68 200.92 150.787 200.429 151C199.939 151.192 199.501 151.48 199.117 151.864C198.733 152.248 198.424 152.717 198.189 153.272C197.976 153.827 197.869 154.456 197.869 155.16C197.869 155.864 197.976 156.493 198.189 157.048C198.424 157.603 198.733 158.072 199.117 158.456C199.501 158.84 199.939 159.139 200.429 159.352C200.92 159.544 201.443 159.64 201.997 159.64ZM212.727 147.32H216.663V149.208H216.919C217.303 148.547 217.9 147.981 218.711 147.512C219.521 147.043 220.524 146.808 221.719 146.808C222.721 146.808 223.671 147.021 224.567 147.448C225.484 147.853 226.284 148.429 226.967 149.176C227.671 149.901 228.225 150.776 228.631 151.8C229.036 152.824 229.239 153.944 229.239 155.16C229.239 156.376 229.036 157.496 228.631 158.52C228.225 159.544 227.671 160.429 226.967 161.176C226.284 161.901 225.484 162.477 224.567 162.904C223.671 163.309 222.721 163.512 221.719 163.512C220.524 163.512 219.521 163.277 218.711 162.808C217.9 162.339 217.303 161.773 216.919 161.112H216.663L216.919 163.352V169.912H212.727V147.32ZM220.855 159.64C221.409 159.64 221.932 159.533 222.423 159.32C222.935 159.107 223.383 158.808 223.767 158.424C224.151 158.04 224.46 157.571 224.695 157.016C224.929 156.461 225.047 155.843 225.047 155.16C225.047 154.477 224.929 153.859 224.695 153.304C224.46 152.749 224.151 152.28 223.767 151.896C223.383 151.512 222.935 151.213 222.423 151C221.932 150.787 221.409 150.68 220.855 150.68C220.3 150.68 219.767 150.787 219.255 151C218.764 151.192 218.327 151.48 217.943 151.864C217.559 152.248 217.249 152.717 217.015 153.272C216.78 153.827 216.663 154.456 216.663 155.16C216.663 155.864 216.78 156.493 217.015 157.048C217.249 157.603 217.559 158.072 217.943 158.456C218.327 158.84 218.764 159.139 219.255 159.352C219.767 159.544 220.3 159.64 220.855 159.64Z" fill="#292D32"/>
<line x1="247.5" y1="141.5" x2="247.5" y2="162.5" stroke="#E6EAEE"/>
<path d="M266.584 158V148.592H263.384V146.544H271.944V148.592H268.744V158H266.584ZM271.267 150.16H273.619L274.915 155.072H275.027L276.579 150.16H278.739L280.307 155.072H280.419L281.699 150.16H284.019L281.507 158H279.251L277.683 153.056H277.571L276.003 158H273.779L271.267 150.16ZM288.53 149.904C289.138 149.904 289.693 150.011 290.194 150.224C290.706 150.427 291.143 150.715 291.506 151.088C291.879 151.451 292.167 151.888 292.37 152.4C292.583 152.912 292.69 153.472 292.69 154.08C292.69 154.688 292.583 155.248 292.37 155.76C292.167 156.272 291.879 156.715 291.506 157.088C291.143 157.451 290.706 157.739 290.194 157.952C289.693 158.155 289.138 158.256 288.53 158.256C287.922 158.256 287.362 158.155 286.85 157.952C286.349 157.739 285.911 157.451 285.538 157.088C285.175 156.715 284.887 156.272 284.674 155.76C284.471 155.248 284.37 154.688 284.37 154.08C284.37 153.472 284.471 152.912 284.674 152.4C284.887 151.888 285.175 151.451 285.538 151.088C285.911 150.715 286.349 150.427 286.85 150.224C287.362 150.011 287.922 149.904 288.53 149.904ZM288.53 156.32C288.797 156.32 289.053 156.272 289.298 156.176C289.554 156.069 289.778 155.92 289.97 155.728C290.162 155.536 290.311 155.301 290.418 155.024C290.535 154.747 290.594 154.432 290.594 154.08C290.594 153.728 290.535 153.413 290.418 153.136C290.311 152.859 290.162 152.624 289.97 152.432C289.778 152.24 289.554 152.096 289.298 152C289.053 151.893 288.797 151.84 288.53 151.84C288.253 151.84 287.991 151.893 287.746 152C287.501 152.096 287.282 152.24 287.09 152.432C286.898 152.624 286.743 152.859 286.626 153.136C286.519 153.413 286.466 153.728 286.466 154.08C286.466 154.432 286.519 154.747 286.626 155.024C286.743 155.301 286.898 155.536 287.09 155.728C287.282 155.92 287.501 156.069 287.746 156.176C287.991 156.272 288.253 156.32 288.53 156.32ZM294.666 151.952H293.29V150.16H294.666V147.76H296.762V150.16H298.682V151.952H296.762V154.992C296.762 155.173 296.778 155.344 296.81 155.504C296.853 155.653 296.928 155.781 297.034 155.888C297.184 156.059 297.397 156.144 297.674 156.144C297.856 156.144 298 156.128 298.106 156.096C298.213 156.053 298.314 156 298.41 155.936L299.002 157.776C298.757 157.893 298.49 157.979 298.202 158.032C297.925 158.096 297.616 158.128 297.274 158.128C296.88 158.128 296.522 158.069 296.202 157.952C295.893 157.824 295.632 157.653 295.418 157.44C294.917 156.96 294.666 156.277 294.666 155.392V151.952ZM303.858 149.904C304.466 149.904 305.021 150.011 305.522 150.224C306.034 150.427 306.471 150.715 306.834 151.088C307.207 151.451 307.495 151.888 307.698 152.4C307.911 152.912 308.018 153.472 308.018 154.08C308.018 154.688 307.911 155.248 307.698 155.76C307.495 156.272 307.207 156.715 306.834 157.088C306.471 157.451 306.034 157.739 305.522 157.952C305.021 158.155 304.466 158.256 303.858 158.256C303.25 158.256 302.69 158.155 302.178 157.952C301.677 157.739 301.239 157.451 300.866 157.088C300.503 156.715 300.215 156.272 300.002 155.76C299.799 155.248 299.698 154.688 299.698 154.08C299.698 153.472 299.799 152.912 300.002 152.4C300.215 151.888 300.503 151.451 300.866 151.088C301.239 150.715 301.677 150.427 302.178 150.224C302.69 150.011 303.25 149.904 303.858 149.904ZM303.858 156.32C304.125 156.32 304.381 156.272 304.626 156.176C304.882 156.069 305.106 155.92 305.298 155.728C305.49 155.536 305.639 155.301 305.746 155.024C305.863 154.747 305.922 154.432 305.922 154.08C305.922 153.728 305.863 153.413 305.746 153.136C305.639 152.859 305.49 152.624 305.298 152.432C305.106 152.24 304.882 152.096 304.626 152C304.381 151.893 304.125 151.84 303.858 151.84C303.581 151.84 303.319 151.893 303.074 152C302.829 152.096 302.61 152.24 302.418 152.432C302.226 152.624 302.071 152.859 301.954 153.136C301.847 153.413 301.794 153.728 301.794 154.08C301.794 154.432 301.847 154.747 301.954 155.024C302.071 155.301 302.226 155.536 302.418 155.728C302.61 155.92 302.829 156.069 303.074 156.176C303.319 156.272 303.581 156.32 303.858 156.32ZM311.177 151.184H311.305C311.55 150.789 311.881 150.48 312.297 150.256C312.713 150.021 313.187 149.904 313.721 149.904C314.211 149.904 314.643 149.984 315.017 150.144C315.39 150.304 315.694 150.533 315.929 150.832C316.174 151.12 316.355 151.472 316.473 151.888C316.601 152.293 316.665 152.747 316.665 153.248V158H314.569V153.504C314.569 152.939 314.441 152.523 314.185 152.256C313.939 151.979 313.577 151.84 313.097 151.84C312.809 151.84 312.553 151.904 312.329 152.032C312.115 152.149 311.929 152.315 311.769 152.528C311.619 152.731 311.502 152.976 311.417 153.264C311.342 153.541 311.305 153.84 311.305 154.16V158H309.209V150.16H311.177V151.184ZM325.82 156.112C325.457 156.752 324.967 157.269 324.348 157.664C323.74 158.059 322.993 158.256 322.108 158.256C321.511 158.256 320.956 158.155 320.444 157.952C319.943 157.739 319.505 157.445 319.132 157.072C318.759 156.699 318.465 156.261 318.252 155.76C318.049 155.248 317.948 154.688 317.948 154.08C317.948 153.515 318.049 152.981 318.252 152.48C318.455 151.968 318.737 151.525 319.1 151.152C319.463 150.768 319.889 150.464 320.38 150.24C320.881 150.016 321.431 149.904 322.028 149.904C322.657 149.904 323.217 150.011 323.708 150.224C324.199 150.427 324.609 150.715 324.94 151.088C325.271 151.451 325.521 151.883 325.692 152.384C325.863 152.885 325.948 153.429 325.948 154.016C325.948 154.091 325.948 154.155 325.948 154.208C325.937 154.272 325.932 154.331 325.932 154.384C325.921 154.437 325.916 154.496 325.916 154.56H320.012C320.055 154.88 320.14 155.157 320.268 155.392C320.407 155.616 320.572 155.808 320.764 155.968C320.967 156.117 321.185 156.229 321.42 156.304C321.655 156.368 321.895 156.4 322.14 156.4C322.62 156.4 323.015 156.293 323.324 156.08C323.644 155.856 323.895 155.579 324.076 155.248L325.82 156.112ZM323.916 153.072C323.905 152.933 323.857 152.779 323.772 152.608C323.697 152.437 323.58 152.277 323.42 152.128C323.271 151.979 323.079 151.856 322.844 151.76C322.62 151.664 322.348 151.616 322.028 151.616C321.58 151.616 321.185 151.744 320.844 152C320.503 152.256 320.263 152.613 320.124 153.072H323.916Z" fill="#292D32"/>
<path d="M672 234H673.74C674.82 234 675.67 234.93 675.58 236L674.75 245.96C674.61 247.59 675.9 248.99 677.54 248.99H688.19C689.63 248.99 690.89 247.81 691 246.38L691.54 238.88C691.66 237.22 690.4 235.87 688.73 235.87H675.82" stroke="#292D32" stroke-width="1.5" stroke-miterlimit="10" stroke-linecap="round" stroke-linejoin="round"/>
<path opacity="0.4" d="M686.25 254C686.94 254 687.5 253.44 687.5 252.75C687.5 252.06 686.94 251.5 686.25 251.5C685.56 251.5 685 252.06 685 252.75C685 253.44 685.56 254 686.25 254Z" stroke="#292D32" stroke-width="1.5" stroke-miterlimit="10" stroke-linecap="round" stroke-linejoin="round"/>
<path opacity="0.4" d="M678.25 254C678.94 254 679.5 253.44 679.5 252.75C679.5 252.06 678.94 251.5 678.25 251.5C677.56 251.5 677 252.06 677 252.75C677 253.44 677.56 254 678.25 254Z" stroke="#292D32" stroke-width="1.5" stroke-miterlimit="10" stroke-linecap="round" stroke-linejoin="round"/>
<path opacity="0.4" d="M679 240H691" stroke="#292D32" stroke-width="1.5" stroke-miterlimit="10" stroke-linecap="round" stroke-linejoin="round"/>
<path d="M742.4 238.5H749.6C753 238.5 753.34 240.09 753.57 242.03L754.47 249.53C754.76 251.99 754 254 750.5 254H741.51C738 254 737.24 251.99 737.54 249.53L738.44 242.03C738.66 240.09 739 238.5 742.4 238.5Z" stroke="#292D32" stroke-width="1.5" stroke-linecap="round" stroke-linejoin="round"/>
<path opacity="0.4" d="M742 240V236.5C742 235 743 234 744.5 234H747.5C749 234 750 235 750 236.5V240" stroke="#292D32" stroke-width="1.5" stroke-linecap="round" stroke-linejoin="round"/>
<path opacity="0.4" d="M754.41 249.03H742" stroke="#292D32" stroke-width="1.5" stroke-linecap="round" stroke-linejoin="round"/>
<path opacity="0.4" d="M819.01 243.22V247.71C819.01 252.2 817.22 254 812.72 254H807.331C806.751 254 806.22 253.97 805.73 253.9" stroke="#292D32" stroke-width="1.5" stroke-linecap="round" stroke-linejoin="round"/>
<path opacity="0.4" d="M801.039 247.52V243.22" stroke="#292D32" stroke-width="1.5" stroke-linecap="round" stroke-linejoin="round"/>
<path d="M810.03 244C811.86 244 813.21 242.51 813.03 240.68L812.36 234H807.69L807.02 240.68C806.84 242.51 808.2 244 810.03 244Z" stroke="#292D32" stroke-width="1.5" stroke-linecap="round" stroke-linejoin="round"/>
<path d="M816.33 244C818.35 244 819.83 242.36 819.63 240.35L819.35 237.6C818.99 235 817.99 234 815.37 234H812.32L813.02 241.01C813.2 242.66 814.68 244 816.33 244Z" stroke="#292D32" stroke-width="1.5" stroke-linecap="round" stroke-linejoin="round"/>
<path d="M803.67 244C805.32 244 806.81 242.66 806.97 241.01L807.19 238.8L807.67 234H804.62C802 234 801 235 800.64 237.6L800.36 240.35C800.16 242.36 801.65 244 803.67 244Z" stroke="#292D32" stroke-width="1.5" stroke-linecap="round" stroke-linejoin="round"/>
<path d="M807 251C807 251.75 806.79 252.46 806.42 253.06C806.23 253.38 806 253.67 805.73 253.9C805.7 253.94 805.67 253.97 805.63 254C804.93 254.63 804.01 255 803 255C801.78 255 800.69 254.45 799.97 253.59C799.95 253.56 799.92 253.54 799.9 253.51C799.78 253.37 799.67 253.22 799.58 253.06C799.21 252.46 799 251.75 799 251C799 249.74 799.58 248.61 800.5 247.88C800.67 247.74 800.85 247.62 801.04 247.52C801.62 247.19 802.29 247 803 247C804 247 804.9 247.36 805.6 247.97C805.72 248.06 805.83 248.17 805.93 248.28C806.59 249 807 249.95 807 251Z" stroke="#292D32" stroke-width="1.5" stroke-miterlimit="10" stroke-linecap="round" stroke-linejoin="round"/>
<g opacity="0.4">
<path d="M804.49 250.98H801.51" stroke="#292D32" stroke-width="1.5" stroke-miterlimit="10" stroke-linecap="round" stroke-linejoin="round"/>
<path d="M803 249.52V252.51" stroke="#292D32" stroke-width="1.5" stroke-miterlimit="10" stroke-linecap="round" stroke-linejoin="round"/>
</g>
<path opacity="0.4" d="M177.01 307.22V311.71C177.01 316.2 175.22 318 170.72 318H165.331C164.751 318 164.22 317.97 163.73 317.9" stroke="#292D32" stroke-width="1.5" stroke-linecap="round" stroke-linejoin="round"/>
<path opacity="0.4" d="M159.039 311.52V307.22" stroke="#292D32" stroke-width="1.5" stroke-linecap="round" stroke-linejoin="round"/>
<path d="M168.03 308C169.86 308 171.21 306.51 171.03 304.68L170.36 298H165.69L165.02 304.68C164.84 306.51 166.2 308 168.03 308Z" stroke="#292D32" stroke-width="1.5" stroke-linecap="round" stroke-linejoin="round"/>
<path d="M174.33 308C176.35 308 177.83 306.36 177.63 304.35L177.35 301.6C176.99 299 175.99 298 173.37 298H170.32L171.02 305.01C171.2 306.66 172.68 308 174.33 308Z" stroke="#292D32" stroke-width="1.5" stroke-linecap="round" stroke-linejoin="round"/>
<path d="M161.67 308C163.32 308 164.81 306.66 164.97 305.01L165.19 302.8L165.67 298H162.62C160 298 159 299 158.64 301.6L158.36 304.35C158.16 306.36 159.65 308 161.67 308Z" stroke="#292D32" stroke-width="1.5" stroke-linecap="round" stroke-linejoin="round"/>
<path d="M165 315C165 315.75 164.79 316.46 164.42 317.06C164.23 317.38 164 317.67 163.73 317.9C163.7 317.94 163.67 317.97 163.63 318C162.93 318.63 162.01 319 161 319C159.78 319 158.69 318.45 157.97 317.59C157.95 317.56 157.92 317.54 157.9 317.51C157.78 317.37 157.67 317.22 157.58 317.06C157.21 316.46 157 315.75 157 315C157 313.74 157.58 312.61 158.5 311.88C158.67 311.74 158.85 311.62 159.04 311.52C159.62 311.19 160.29 311 161 311C162 311 162.9 311.36 163.6 311.97C163.72 312.06 163.83 312.17 163.93 312.28C164.59 313 165 313.95 165 315Z" stroke="#292D32" stroke-width="1.5" stroke-miterlimit="10" stroke-linecap="round" stroke-linejoin="round"/>
<path opacity="0.4" d="M162.49 314.98H159.51" stroke="#292D32" stroke-width="1.5" stroke-miterlimit="10" stroke-linecap="round" stroke-linejoin="round"/>
<path d="M301 316.5H291C288 316.5 286 315 286 311.5V304.5C286 301 288 299.5 291 299.5H301C304 299.5 306 301 306 304.5V311.5C306 315 304 316.5 301 316.5Z" stroke="#292D32" stroke-width="1.5" stroke-miterlimit="10" stroke-linecap="round" stroke-linejoin="round"/>
<path opacity="0.4" d="M290 304V312" stroke="#292D32" stroke-width="1.5" stroke-miterlimit="10" stroke-linecap="round" stroke-linejoin="round"/>
<path d="M293 304V308" stroke="#292D32" stroke-width="1.5" stroke-miterlimit="10" stroke-linecap="round" stroke-linejoin="round"/>
<path d="M293 311V312" stroke="#292D32" stroke-width="1.5" stroke-miterlimit="10" stroke-linecap="round" stroke-linejoin="round"/>
<path d="M299 304V305" stroke="#292D32" stroke-width="1.5" stroke-miterlimit="10" stroke-linecap="round" stroke-linejoin="round"/>
<path opacity="0.4" d="M296 304V312" stroke="#292D32" stroke-width="1.5" stroke-miterlimit="10" stroke-linecap="round" stroke-linejoin="round"/>
<path d="M299 308V312" stroke="#292D32" stroke-width="1.5" stroke-miterlimit="10" stroke-linecap="round" stroke-linejoin="round"/>
<path opacity="0.4" d="M302 304V312" stroke="#292D32" stroke-width="1.5" stroke-miterlimit="10" stroke-linecap="round" stroke-linejoin="round"/>
<g opacity="0.4">
<path d="M361.391 249.36L358.641 246.61" stroke="#292D32" stroke-width="1.5" stroke-miterlimit="10" stroke-linecap="round" stroke-linejoin="round"/>
<path d="M361.359 246.64L358.609 249.39" stroke="#292D32" stroke-width="1.5" stroke-miterlimit="10" stroke-linecap="round" stroke-linejoin="round"/>
</g>
<path opacity="0.4" d="M356.809 234L353.189 237.63" stroke="#292D32" stroke-width="1.5" stroke-miterlimit="10" stroke-linecap="round" stroke-linejoin="round"/>
<path opacity="0.4" d="M363.189 234L366.809 237.63" stroke="#292D32" stroke-width="1.5" stroke-miterlimit="10" stroke-linecap="round" stroke-linejoin="round"/>
<path d="M350 239.85C350 238 350.99 237.85 352.22 237.85H367.78C369.01 237.85 370 238 370 239.85C370 242 369.01 241.85 367.78 241.85H352.22C350.99 241.85 350 242 350 239.85Z" stroke="#292D32" stroke-width="1.5"/>
<path d="M351.5 242L352.91 250.64C353.23 252.58 354 254 356.86 254H362.89C366 254 366.46 252.64 366.82 250.76L368.5 242" stroke="#292D32" stroke-width="1.5" stroke-linecap="round"/>
<path opacity="0.4" d="M424 251C426.209 251 428 249.209 428 247C428 244.791 426.209 243 424 243C421.791 243 420 244.791 420 247C420 249.209 421.791 251 424 251Z" stroke="#292D32" stroke-width="1.5" stroke-miterlimit="10" stroke-linecap="round" stroke-linejoin="round"/>
<path opacity="0.4" d="M424.25 245.75V246.68C424.25 247.03 424.07 247.36 423.76 247.54L423 248" stroke="#292D32" stroke-width="1.5" stroke-miterlimit="10" stroke-linecap="round" stroke-linejoin="round"/>
<path d="M421.001 254H427.001C431.021 254 431.741 252.39 431.951 250.43L432.701 244.43C432.971 241.99 432.271 240 428.001 240H420.001C415.731 240 415.031 241.99 415.301 244.43L416.051 250.43C416.261 252.39 416.981 254 421.001 254Z" stroke="#292D32" stroke-width="1.5" stroke-miterlimit="10" stroke-linecap="round" stroke-linejoin="round"/>
<path opacity="0.4" d="M419.5 239.67V238.7C419.5 236.45 421.31 234.24 423.56 234.03C426.24 233.77 428.5 235.88 428.5 238.51V239.89" stroke="#292D32" stroke-width="1.5" stroke-miterlimit="10" stroke-linecap="round" stroke-linejoin="round"/>
<path opacity="0.4" d="M611.5 239.67V238.7C611.5 236.45 613.31 234.24 615.56 234.03C618.24 233.77 620.5 235.88 620.5 238.51V239.89" stroke="#292D32" stroke-width="1.5" stroke-miterlimit="10" stroke-linecap="round" stroke-linejoin="round"/>
<path d="M613.001 254H619.001C623.021 254 623.741 252.39 623.951 250.43L624.701 244.43C624.971 241.99 624.271 240 620.001 240H612.001C607.731 240 607.031 241.99 607.301 244.43L608.051 250.43C608.261 252.39 608.981 254 613.001 254Z" stroke="#292D32" stroke-width="1.5" stroke-miterlimit="10" stroke-linecap="round" stroke-linejoin="round"/>
<path opacity="0.4" d="M619.495 244H619.503" stroke="#292D32" stroke-width="2" stroke-linecap="round" stroke-linejoin="round"/>
<path opacity="0.4" d="M612.495 244H612.503" stroke="#292D32" stroke-width="2" stroke-linecap="round" stroke-linejoin="round"/>
<g opacity="0.4">
<path d="M228.5 246.25C228.5 248.17 230.08 249.75 232 249.75C233.92 249.75 235.5 248.17 235.5 246.25" stroke="#292D32" stroke-width="1.5" stroke-miterlimit="10" stroke-linecap="round" stroke-linejoin="round"/>
<path d="M228.809 234L225.189 237.63" stroke="#292D32" stroke-width="1.5" stroke-miterlimit="10" stroke-linecap="round" stroke-linejoin="round"/>
<path d="M235.189 234L238.809 237.63" stroke="#292D32" stroke-width="1.5" stroke-miterlimit="10" stroke-linecap="round" stroke-linejoin="round"/>
</g>
<path d="M222 239.85C222 238 222.99 237.85 224.22 237.85H239.78C241.01 237.85 242 238 242 239.85C242 242 241.01 241.85 239.78 241.85H224.22C222.99 241.85 222 242 222 239.85Z" stroke="#292D32" stroke-width="1.5"/>
<path d="M223.5 242L224.91 250.64C225.23 252.58 226 254 228.86 254H234.89C238 254 238.46 252.64 238.82 250.76L240.5 242" stroke="#292D32" stroke-width="1.5" stroke-linecap="round"/>
<path opacity="0.4" d="M488 251C490.209 251 492 249.209 492 247C492 244.791 490.209 243 488 243C485.791 243 484 244.791 484 247C484 249.209 485.791 251 488 251Z" stroke="#292D32" stroke-width="1.5" stroke-miterlimit="10" stroke-linecap="round" stroke-linejoin="round"/>
<path opacity="0.4" d="M486.439 247L487.089 247.65C487.279 247.84 487.589 247.85 487.779 247.66L489.559 246.02" stroke="#292D32" stroke-width="1.5" stroke-linecap="round" stroke-linejoin="round"/>
<path d="M485.001 254H491.001C495.021 254 495.741 252.39 495.951 250.43L496.701 244.43C496.971 241.99 496.271 240 492.001 240H484.001C479.731 240 479.031 241.99 479.301 244.43L480.051 250.43C480.261 252.39 480.981 254 485.001 254Z" stroke="#292D32" stroke-width="1.5" stroke-miterlimit="10" stroke-linecap="round" stroke-linejoin="round"/>
<path opacity="0.4" d="M483.5 239.67V238.7C483.5 236.45 485.31 234.24 487.56 234.03C490.24 233.77 492.5 235.88 492.5 238.51V239.89" stroke="#292D32" stroke-width="1.5" stroke-miterlimit="10" stroke-linecap="round" stroke-linejoin="round"/>
<path opacity="0.4" d="M552 251C554.209 251 556 249.209 556 247C556 244.791 554.209 243 552 243C549.791 243 548 244.791 548 247C548 249.209 549.791 251 552 251Z" stroke="#292D32" stroke-width="1.5" stroke-miterlimit="10" stroke-linecap="round" stroke-linejoin="round"/>
<g opacity="0.4">
<path d="M553.069 248.11L550.949 246" stroke="#292D32" stroke-width="1.5" stroke-miterlimit="10" stroke-linecap="round" stroke-linejoin="round"/>
<path d="M553.05 246.02L550.93 248.14" stroke="#292D32" stroke-width="1.5" stroke-miterlimit="10" stroke-linecap="round" stroke-linejoin="round"/>
</g>
<path d="M549.001 254H555.001C559.021 254 559.741 252.39 559.951 250.43L560.701 244.43C560.971 241.99 560.271 240 556.001 240H548.001C543.731 240 543.031 241.99 543.301 244.43L544.051 250.43C544.261 252.39 544.981 254 549.001 254Z" stroke="#292D32" stroke-width="1.5" stroke-miterlimit="10" stroke-linecap="round" stroke-linejoin="round"/>
<path opacity="0.4" d="M547.5 239.67V238.7C547.5 236.45 549.31 234.24 551.56 234.03C554.24 233.77 556.5 235.88 556.5 238.51V239.89" stroke="#292D32" stroke-width="1.5" stroke-miterlimit="10" stroke-linecap="round" stroke-linejoin="round"/>
<path d="M158 239.85C158 238 158.99 237.85 160.22 237.85H175.78C177.01 237.85 178 238 178 239.85C178 242 177.01 241.85 175.78 241.85H160.22C158.99 241.85 158 242 158 239.85Z" stroke="#292D32" stroke-width="1.5"/>
<g opacity="0.4">
<path d="M164.809 234L161.189 237.63" stroke="#292D32" stroke-width="1.5" stroke-miterlimit="10" stroke-linecap="round" stroke-linejoin="round"/>
<path d="M171.189 234L174.809 237.63" stroke="#292D32" stroke-width="1.5" stroke-miterlimit="10" stroke-linecap="round" stroke-linejoin="round"/>
<path d="M165.76 246V249.55" stroke="#292D32" stroke-width="1.5" stroke-linecap="round"/>
<path d="M170.359 246V249.55" stroke="#292D32" stroke-width="1.5" stroke-linecap="round"/>
</g>
<path d="M159.5 242L160.91 250.64C161.23 252.58 162 254 164.86 254H170.89C174 254 174.46 252.64 174.82 250.76L176.5 242" stroke="#292D32" stroke-width="1.5" stroke-linecap="round"/>
<path d="M232 308C233.83 308 235.18 306.51 235 304.68L234.34 298H229.67L229 304.68C228.82 306.51 230.17 308 232 308Z" stroke="#292D32" stroke-width="1.5" stroke-linecap="round" stroke-linejoin="round"/>
<path d="M238.311 308C240.331 308 241.811 306.36 241.611 304.35L241.331 301.6C240.971 299 239.971 298 237.351 298H234.301L235.001 305.01C235.171 306.66 236.661 308 238.311 308Z" stroke="#292D32" stroke-width="1.5" stroke-linecap="round" stroke-linejoin="round"/>
<path d="M225.64 308C227.29 308 228.78 306.66 228.94 305.01L229.16 302.8L229.64 298H226.59C223.97 298 222.97 299 222.61 301.6L222.34 304.35C222.14 306.36 223.62 308 225.64 308Z" stroke="#292D32" stroke-width="1.5" stroke-linecap="round" stroke-linejoin="round"/>
<g opacity="0.4">
<path d="M223.01 307.22V311.71C223.01 316.2 224.81 318 229.3 318H234.69C239.18 318 240.98 316.2 240.98 311.71V307.22" stroke="#292D32" stroke-width="1.5" stroke-linecap="round" stroke-linejoin="round"/>
<path d="M232 313C230.33 313 229.5 313.83 229.5 315.5V318H234.5V315.5C234.5 313.83 233.67 313 232 313Z" stroke="#292D32" stroke-width="1.5" stroke-linecap="round" stroke-linejoin="round"/>
</g>
<g opacity="0.4">
<path d="M293.619 248L295.119 249.5L298.369 246.5" stroke="#292D32" stroke-width="1.5" stroke-linecap="round" stroke-linejoin="round"/>
<path d="M292.809 234L289.189 237.63" stroke="#292D32" stroke-width="1.5" stroke-miterlimit="10" stroke-linecap="round" stroke-linejoin="round"/>
<path d="M299.189 234L302.809 237.63" stroke="#292D32" stroke-width="1.5" stroke-miterlimit="10" stroke-linecap="round" stroke-linejoin="round"/>
</g>
<path d="M286 239.85C286 238 286.99 237.85 288.22 237.85H303.78C305.01 237.85 306 238 306 239.85C306 242 305.01 241.85 303.78 241.85H288.22C286.99 241.85 286 242 286 239.85Z" stroke="#292D32" stroke-width="1.5"/>
<path d="M287.5 242L288.91 250.64C289.23 252.58 290 254 292.86 254H298.89C302 254 302.46 252.64 302.82 250.76L304.5 242" stroke="#292D32" stroke-width="1.5" stroke-linecap="round"/>
</g>
<defs>
<filter id="filter0_d_3142_35118" x="0" y="0" width="976" height="469" filterUnits="userSpaceOnUse" color-interpolation-filters="sRGB">
<feFlood flood-opacity="0" result="BackgroundImageFix"/>
<feColorMatrix in="SourceAlpha" type="matrix" values="0 0 0 0 0 0 0 0 0 0 0 0 0 0 0 0 0 0 127 0" result="hardAlpha"/>
<feOffset dy="4"/>
<feGaussianBlur stdDeviation="24"/>
<feColorMatrix type="matrix" values="0 0 0 0 0 0 0 0 0 0 0 0 0 0 0 0 0 0 0.02 0"/>
<feBlend mode="normal" in2="BackgroundImageFix" result="effect1_dropShadow_3142_35118"/>
<feBlend mode="normal" in="SourceGraphic" in2="effect1_dropShadow_3142_35118" result="shape"/>
</filter>
</defs>
</svg>
